# xmcd
#
# Track frame offsets: 
#        150
#        15568
#        30056
#        42782
#        56808
#        71312
#        81732
#        92888
#        107621
#        121804
#        136878
#        155175
#        171553
#        186060
#        201944
#        219745
#        234808
#        252366
#        275049
#        292144
#        306332
#        323568
#
# Disc length: 4490 seconds
#
# Revision: 0
# Processed by: cddbd v1.5.2PL0 Copyright (c) Steve Scherf et al.
# Submitted via: ExactAudioCopy v1.3
#
DISCID=43118816
DTITLE=Marty Stuart - Now That's Country-Disc 1
DYEAR=2017
DGENRE=Country
TTITLE0=Doin' My Time
TTITLE1=Red, Red Wine and Cheatin' Songs
TTITLE2=One Woman Man
TTITLE3=Hey Baby
TTITLE4=Goin' Nowhere Fast
TTITLE5=Mojave
TTITLE6=Country Girls
TTITLE7=Honky Tonk Crowd
TTITLE8=Tempted
TTITLE9=Farmer's Blues
TTITLE10=High On A Mountain Top
TTITLE11=Branded
TTITLE12=Wheels
TTITLE13=Oh What A Silent Night
TTITLE14=Time Don't Wait
TTITLE15=Whole Lotta Highway
TTITLE16=Crying,Waiting,Hoping
TTITLE17=Listen To The Children
TTITLE18=Orange Blossom Special
TTITLE19=Sure Wanna Keep My Wine
TTITLE20=Somebody Saved Me
TTITLE21=Burn Me Down
EXTD=
EXTT0=
EXTT1=
EXTT2=
EXTT3=
EXTT4=
EXTT5=
EXTT6=
EXTT7=
EXTT8=
EXTT9=
EXTT10=
EXTT11=
EXTT12=
EXTT13=
EXTT14=
EXTT15=
EXTT16=
EXTT17=
EXTT18=
EXTT19=
EXTT20=
EXTT21=
PLAYORDER=
